<svg width="259.52996826171875px" height="120.80984191894531px" xmlns="http://www.w3.org/2000/svg" viewBox="120.23501586914062 14.595079040527345 259.52996826171875 120.80984191894531" style="background: rgba(0, 0, 0, 0);" preserveAspectRatio="xMidYMid"><defs><linearGradient id="editing-gradient-gradient" x1="0" x2="1" y1="0.5" y2="0.5" gradientUnits="objectBoundingBox"><stop offset="0" stop-color="#f0f"></stop><stop offset="1" stop-color="#0ff"></stop></linearGradient></defs><g><g transform="translate(163.28624939918518, 97.01499938964844)"><path d="M14.21 0L0.51 0L8.32-42.05L8.32-42.05Q14.66-42.75 23.90-42.75L23.90-42.75L23.90-42.75Q33.15-42.75 37.44-40.06L37.44-40.06L37.44-40.06Q41.73-37.38 41.73-31.97L41.73-31.97L41.73-31.97Q41.73-26.56 38.94-23.17L38.94-23.17L38.94-23.17Q36.16-19.78 31.36-18.69L31.36-18.69L31.36-18.69Q32.45-13.38 34.94-9.09L34.94-9.09L34.94-9.09Q37.25-5.06 39.94-3.78L39.94-3.78L39.94-3.78Q38.98-1.09 37.02 0.10L37.02 0.10L37.02 0.10Q35.07 1.28 32.29 1.28L32.29 1.28L32.29 1.28Q29.50 1.28 27.33-0.35L27.33-0.35L27.33-0.35Q25.15-1.98 23.42-4.99L23.42-4.99L23.42-4.99Q19.78-11.52 19.39-21.82L19.39-21.82L19.84-21.82L19.84-21.82Q24.58-21.95 26.94-24.42L26.94-24.42L26.94-24.42Q29.31-26.88 29.31-32.06L29.31-32.06L29.31-32.06Q29.31-38.53 23.87-38.78L23.87-38.78L22.46-38.78L22.46-38.78Q21.89-38.78 21.57-38.72L21.57-38.72L14.21 0ZM70.59-10.82L70.59-10.82L70.59-10.82Q72.19-9.73 72.19-7.33L72.19-7.33L72.19-7.33Q72.19-4.93 70.98-3.39L70.98-3.39L70.98-3.39Q69.76-1.86 67.78-0.83L67.78-0.83L67.78-0.83Q63.68 1.28 59.26 1.28L59.26 1.28L59.26 1.28Q54.85 1.28 52.26 0.32L52.26 0.32L52.26 0.32Q49.66-0.64 47.94-2.43L47.94-2.43L47.94-2.43Q44.54-5.82 44.54-12.03L44.54-12.03L44.54-12.03Q44.54-21.70 49.79-27.58L49.79-27.58L49.79-27.58Q55.42-33.92 65.22-33.92L65.22-33.92L65.22-33.92Q71.30-33.92 74.30-31.36L74.30-31.36L74.30-31.36Q76.54-29.44 76.54-26.30L76.54-26.30L76.54-26.30Q76.54-15.04 57.09-15.04L57.09-15.04L57.09-15.04Q56.83-13.38 56.83-11.97L56.83-11.97L56.83-11.97Q56.83-9.02 58.14-7.90L58.14-7.90L58.14-7.90Q59.46-6.78 61.89-6.78L61.89-6.78L61.89-6.78Q64.32-6.78 66.91-7.90L66.91-7.90L66.91-7.90Q69.50-9.02 70.59-10.82ZM57.54-17.79L57.54-17.79L57.54-17.79Q62.08-17.79 64.70-20.61L64.70-20.61L64.70-20.61Q67.33-23.30 67.33-27.58L67.33-27.58L67.33-27.58Q67.33-29.06 66.78-29.86L66.78-29.86L66.78-29.86Q66.24-30.66 65.15-30.66L65.15-30.66L65.15-30.66Q64.06-30.66 63.14-30.24L63.14-30.24L63.14-30.24Q62.21-29.82 61.25-28.42L61.25-28.42L61.25-28.42Q58.88-25.22 57.54-17.79ZM81.50-1.92L81.50-1.92L81.50-1.92Q80-3.58 79.33-6.21L79.33-6.21L79.33-6.21Q78.66-8.83 78.66-13.12L78.66-13.12L78.66-13.12Q78.66-17.41 80.13-21.31L80.13-21.31L80.13-21.31Q81.60-25.22 84.29-28.03L84.29-28.03L84.29-28.03Q89.79-33.92 98.88-33.92L98.88-33.92L98.88-33.92Q102.14-33.92 104.51-32.83L104.51-32.83L115.46-33.92L110.72-8.96L110.72-8.96Q110.53-8.19 110.53-6.78L110.53-6.78L110.53-6.78Q110.53-5.38 111.39-4.48L111.39-4.48L111.39-4.48Q112.26-3.58 113.54-3.46L113.54-3.46L113.54-3.46Q112.90-1.28 110.56 0L110.56 0L110.56 0Q108.22 1.28 105.60 1.28L105.60 1.28L105.60 1.28Q102.98 1.28 101.22 0.29L101.22 0.29L101.22 0.29Q99.46-0.70 98.94-2.37L98.94-2.37L98.94-2.37Q97.92-0.77 95.74 0.26L95.74 0.26L95.74 0.26Q93.57 1.28 90.66 1.28L90.66 1.28L90.66 1.28Q87.74 1.28 85.38 0.51L85.38 0.51L85.38 0.51Q83.01-0.26 81.50-1.92ZM95.01-27.90L95.01-27.90L95.01-27.90Q94.27-26.75 93.63-24.80L93.63-24.80L93.63-24.80Q92.99-22.85 91.94-17.63L91.94-17.63L91.94-17.63Q90.88-12.42 90.88-8.70L90.88-8.70L90.88-8.70Q90.88-4.99 91.46-3.90L91.46-3.90L91.46-3.90Q92.03-2.82 93.06-2.82L93.06-2.82L93.06-2.82Q95.10-2.82 96.61-4.77L96.61-4.77L96.61-4.77Q98.11-6.72 98.69-10.18L98.69-10.18L102.08-28.93L102.08-28.93Q100.74-30.08 99.17-30.08L99.17-30.08L99.17-30.08Q97.60-30.08 96.67-29.57L96.67-29.57L96.67-29.57Q95.74-29.06 95.01-27.90ZM150.08-26.62L150.08-26.62L150.08-26.62Q150.08-23.94 147.84-22.27L147.84-22.27L147.84-22.27Q145.60-20.61 141.95-20.61L141.95-20.61L141.95-20.61Q140.42-20.61 139.52-21.06L139.52-21.06L139.52-21.06Q140.22-22.72 140.45-24.80L140.45-24.80L140.45-24.80Q140.67-26.88 140.67-27.46L140.67-27.46L140.67-27.46Q140.67-30.14 138.82-30.14L138.82-30.14L138.82-30.14Q137.54-30.14 136.10-28.54L136.10-28.54L136.10-28.54Q134.66-26.94 133.44-24.45L133.44-24.45L133.44-24.45Q130.75-18.69 130.75-12.86L130.75-12.86L130.75-12.86Q130.75-9.66 131.97-8.22L131.97-8.22L131.97-8.22Q133.18-6.78 135.87-6.78L135.87-6.78L135.87-6.78Q139.58-6.78 142.53-9.86L142.53-9.86L142.53-9.86Q143.36-10.82 143.81-11.90L143.81-11.90L143.81-11.90Q146.24-10.62 146.24-7.10L146.24-7.10L146.24-7.10Q146.24-3.52 142.27-1.15L142.27-1.15L142.27-1.15Q138.18 1.28 131.65 1.28L131.65 1.28L131.65 1.28Q118.66 1.28 118.66-12.48L118.66-12.48L118.66-12.48Q118.66-22.53 124.35-28.29L124.35-28.29L124.35-28.29Q129.86-33.92 139.97-33.92L139.97-33.92L139.97-33.92Q150.08-33.92 150.08-26.62ZM152.83-6.40L152.83-6.40L152.83-6.40Q152.83-8.13 153.73-12.48L153.73-12.48L157.12-29.76L153.34-29.76L153.60-31.68L153.60-31.68Q161.28-33.98 168.70-39.62L168.70-39.62L171.78-39.62L170.24-32.64L175.23-32.64L174.66-29.76L169.73-29.76L166.46-12.48L166.46-12.48Q165.63-8.51 165.63-7.17L165.63-7.17L165.63-7.17Q165.63-4.10 168.32-3.46L168.32-3.46L168.32-3.46Q167.68-1.28 165.38 0L165.38 0L165.38 0Q163.07 1.28 159.81 1.28L159.81 1.28L159.81 1.28Q156.54 1.28 154.69-0.77L154.69-0.77L154.69-0.77Q152.83-2.82 152.83-6.40Z" fill="url(#editing-gradient-gradient)"></path></g></g><style>text {
  font-size: 64px;
  font-family: Arial Black;
  dominant-baseline: central;
  text-anchor: middle;
}</style></svg>